<?xml version="1.0" encoding="UTF-8" standalone="no"?>
<!-- Created with Inkscape (http://www.inkscape.org/) -->

<svg
   version="1.1"
   id="svg1"
   width="2666.6667"
   height="2666.6667"
   viewBox="0 0 2666.6667 2666.6667"
   sodipodi:docname="0af07d56-7162-425d-ac95-39c584ad3e6d.ai"
   xmlns:inkscape="http://www.inkscape.org/namespaces/inkscape"
   xmlns:sodipodi="http://sodipodi.sourceforge.net/DTD/sodipodi-0.dtd"
   xmlns="http://www.w3.org/2000/svg"
   xmlns:svg="http://www.w3.org/2000/svg">
  <defs
     id="defs1">
    <clipPath
       clipPathUnits="userSpaceOnUse"
       id="clipPath2">
      <path
         d="M 0,2000 H 2000 V 0 H 0 Z"
         transform="translate(-769.68639,-838.74682)"
         id="path2" />
    </clipPath>
    <clipPath
       clipPathUnits="userSpaceOnUse"
       id="clipPath4">
      <path
         d="M 0,2000 H 2000 V 0 H 0 Z"
         transform="translate(-964.9936,-1101.5883)"
         id="path4" />
    </clipPath>
    <clipPath
       clipPathUnits="userSpaceOnUse"
       id="clipPath6">
      <path
         d="M 0,2000 H 2000 V 0 H 0 Z"
         transform="translate(-1496.7285,-816.40335)"
         id="path6" />
    </clipPath>
    <clipPath
       clipPathUnits="userSpaceOnUse"
       id="clipPath8">
      <path
         d="M 0,2000 H 2000 V 0 H 0 Z"
         transform="translate(-1474.1325,-618.22994)"
         id="path8" />
    </clipPath>
  </defs>
  <sodipodi:namedview
     id="namedview1"
     pagecolor="#ffffff"
     bordercolor="#000000"
     borderopacity="0.25"
     inkscape:showpageshadow="2"
     inkscape:pageopacity="0.0"
     inkscape:pagecheckerboard="0"
     inkscape:deskcolor="#d1d1d1">
    <inkscape:page
       x="0"
       y="0"
       inkscape:label="1"
       id="page1"
       width="2666.6667"
       height="2666.6667"
       margin="669.48401 473.33334 669.47998"
       bleed="0" />
  </sodipodi:namedview>
  <g
     id="layer-MC0"
     inkscape:groupmode="layer"
     inkscape:label="Capa 1">
    <path
       id="path1"
       d="m 0,0 c -0.37,-0.498 0.142,-1.093 0.968,-1.093 13.81,-0.153 30.439,-0.23 49.945,-0.23 17.17,-0.019 31.293,1.381 42.369,4.16 26.226,6.613 44.848,18.592 55.839,35.958 13.64,21.544 11.219,42.226 -7.261,62.065 -17.825,19.071 -48.008,32.144 -82.177,32.144 -62.331,-0.039 -101.484,0.019 -117.458,0.191 -28.617,0.288 -56.152,4.006 -82.605,11.156 -75.77,20.509 -132.634,68.505 -144.508,123.247 -2.534,11.788 -3.104,24.573 -1.708,38.335 2.534,24.554 13.468,47.287 32.859,68.237 13.782,14.874 30.24,27.927 49.347,39.14 42.057,24.649 90.976,37.204 146.786,37.683 36.875,0.307 86.306,0.364 148.238,0.173 1.453,0 2.392,-1.035 1.709,-1.898 L 22.609,360.465 c -0.655,-0.824 -1.908,-1.342 -3.275,-1.323 -10.962,0.019 -30.268,0.096 -57.889,0.192 -24.146,0.077 -43.993,-0.077 -64.665,-8.357 -40.861,-16.331 -57.974,-47.401 -45.616,-77.859 6.805,-16.733 22.181,-30.093 46.185,-40.079 13.469,-5.616 28.418,-8.395 44.876,-8.376 56.636,0.134 93.425,0.115 110.339,-0.019 15.917,-0.135 32.062,-1.15 48.378,-3.067 77.85,-9.124 141.262,-46.194 173.325,-94.113 9.197,-13.743 14.807,-28.981 16.885,-45.714 0.541,-4.39 0.684,-11.443 0.484,-21.161 -0.199,-8.511 -0.939,-15.526 -2.221,-21.027 C 282.24,8.836 262.165,-18.343 229.22,-41.977 181.411,-76.268 122.298,-93.365 51.852,-93.288 c -134.542,0.172 -221.873,0.191 -261.966,0.076 -2.249,0 -4.072,0.058 -5.41,0.192 -1.879,0.211 -2.392,0.882 -1.537,2.013 l 150.672,202.876 c 0.968,1.322 2.563,1.993 4.755,1.993 H 80.653 c 2.762,0 3.531,-0.824 2.307,-2.492 z"
       style="fill:#000000;fill-opacity:1;fill-rule:nonzero;stroke:none"
       transform="matrix(1.3333333,0,0,-1.3333333,1026.2485,1548.3376)"
       clip-path="url(#clipPath2)" />
    <path
       id="path3"
       d="m 0,0 -29.434,-39.216 c 0,0 -32.174,11.26 -65.956,16.086 -33.783,4.827 -71.785,0.691 -71.785,0.691 L -0.798,202.757 c 0.513,0.671 1.937,0.671 2.449,0 l 486.264,-657.421 -93.998,-78.542 -9.941,13.456 z"
       style="fill:#ff0000;fill-opacity:1;fill-rule:nonzero;stroke:none"
       transform="matrix(1.3333333,0,0,-1.3333333,1286.6581,1197.8823)"
       clip-path="url(#clipPath4)" />
    <path
       id="path5"
       d="m 0,0 c 45.109,250.422 -176.124,499.867 -494.137,557.151 -300.191,54.074 -579.306,-82.41 -647.591,-308.512 0.957,14.394 2.712,28.817 5.31,43.241 48.878,271.352 374.708,439.772 727.759,376.176 C -55.607,604.461 190.974,332.932 142.096,61.58 120.689,-57.257 46.163,-156.349 -60.504,-224.858 c -59.528,-38.232 -78.067,-13.237 -32.662,37.419 C -45.538,-134.303 -12.774,-70.915 0,0"
       style="fill:#ff0000;fill-opacity:1;fill-rule:nonzero;stroke:none"
       transform="matrix(1.3333333,0,0,-1.3333333,1995.6379,1578.1289)"
       clip-path="url(#clipPath6)" />
    <path
       id="path7"
       d="m 0,0 -38.248,51.711 c -23.221,-33.66 -51.868,-64.093 -84.946,-90.768 l 18.223,-24.667 C -66.861,-45.74 -31.634,-24.385 0,0"
       style="fill:#ff0000;fill-opacity:1;fill-rule:nonzero;stroke:none"
       transform="matrix(1.3333333,0,0,-1.3333333,1965.5099,1842.3601)"
       clip-path="url(#clipPath8)" />
    <path
       id="path9"
       d="M 49.334947,4.4403922 C 37.668931,4.4403922 28.39647,3.1513297 21.514634,0.57320469 15.772447,-1.6299203 10.513658,-4.9756234 5.7411969,-9.4697641 V -39.293983 H 41.155259 v 13.335938 c 0,1.719726 0.788086,3.128906 2.367188,4.230468 1.576172,1.101563 3.225586,1.652344 4.945312,1.652344 2.771485,0 4.757813,-0.93164 5.953125,-2.800781 1.195313,-1.866211 1.792969,-4.617188 1.792969,-8.25 0,-6.788086 -4.447265,-11.519531 -13.335937,-14.191406 -15.679688,-4.6875 -24.043946,-7.31543 -25.089844,-7.886719 -8.9941407,-5.162109 -13.4882814,-14.197266 -13.4882814,-27.105469 0,-13.866211 4.2539063,-23.812502 12.7617184,-29.835942 6.881836,-4.875 16.587891,-7.3125 29.121094,-7.3125 11.466797,0 20.595703,1.24219 27.386719,3.72657 5.835937,2.10351 11.044922,5.30566 15.632812,9.60937 v 27.539065 H 55.791978 v -10.042969 c 0,-1.913086 -0.574219,-3.585938 -1.722656,-5.015625 -1.148438,-1.435547 -2.871094,-2.15625 -5.167969,-2.15625 -5.258789,0 -7.886719,3.442383 -7.886719,10.324219 0,5.071289 4.444336,8.894531 13.335938,11.472656 13.289062,3.829102 21.556641,6.793945 24.808594,8.894531 8.991211,5.835938 13.488281,15.301758 13.488281,28.394531 0,26.1035161 -14.4375,39.1523442 -43.3125,39.1523442 z M 149.81444,-0.00101406 V -1.5830453 c 0,-1.2421875 -0.43066,-1.8632813 -1.28906,-1.8632813 -0.28125,0 -2.95899,1.1953125 -8.02735,3.58593754 -2.68066,1.24218746 -4.78125,1.86328126 -6.30468,1.86328126 -2.20313,0 -3.87891,0 -5.02735,0 -7.35937,0 -12.76172,-1.05175782 -16.20703,-3.1523438 -5.0625,-3.0615234 -8.02441,-9.0849604 -8.88281,-18.0703124 -0.10254,-0.670898 -0.15235,-1.722656 -0.15235,-3.152344 0,-5.162109 1.33887,-9.752929 4.01954,-13.769531 2.67773,-4.013672 6.5039,-6.881836 11.47265,-8.601563 l 29.54297,-10.324218 v -6.175782 c 0,-2.100585 -0.59766,-3.506835 -1.79297,-4.21875 -1.19531,-0.717773 -2.46094,-1.078125 -3.79687,-1.078125 -4.59375,0 -6.89063,1.957032 -6.89063,5.871094 v 5.308594 h -28.82812 v -19.792969 c 5.26465,-4.491211 10.71679,-7.526367 16.35937,-9.105469 5.63965,-1.576171 12.47461,-2.367187 20.50781,-2.367187 9.84375,0 17.9209,1.675781 24.23438,5.027344 7.74023,4.110351 11.61328,10.274414 11.61328,18.492187 v 37.582031 c 0,0.767579 0.14356,1.50879 0.43359,2.226563 0.28711,0.711914 0.71778,1.49707 1.28907,2.355469 0.56836,0.861328 1.28906,1.482422 2.15625,1.863281 V -0.00101406 Z M 140.93163,-31.547889 c -1.43848,0.767578 -2.56348,1.769531 -3.375,3.011719 -0.81446,1.242187 -1.12207,2.578125 -0.92578,4.007812 0.4746,3.351563 2.38476,5.027344 5.73046,5.027344 1.91309,0 3.58594,-0.621094 5.01563,-1.863281 1.43555,-1.248047 2.15625,-2.827149 2.15625,-4.734375 v -5.027344 c 0,-1.335938 -0.91113,-2.003906 -2.73047,-2.003906 -1.04883,0 -1.97754,0.123047 -2.78906,0.363281 -0.81446,0.234375 -1.83985,0.641602 -3.08203,1.21875 z m 89.41992,5.589844 c 0,0.767578 0.14062,1.508789 0.42187,2.226562 0.28711,0.711914 0.6709,1.450196 1.14844,2.214844 0.8584,1.242187 2.00684,2.056641 3.44531,2.4375 V -0.00101406 H 197.64452 V -19.501014 c 0.86718,-0.380859 1.6084,-1.048828 2.22656,-2.003906 0.62402,-0.960938 0.9375,-2.44336 0.9375,-4.453125 v -32.273438 c 0,-1.045898 -0.14648,-1.904297 -0.43359,-2.578125 -0.29004,-0.670898 -0.79395,-1.552734 -1.51172,-2.648437 -0.71192,-1.101563 -1.6875,-2.033203 -2.92969,-2.800782 v -17.636718 h 33.84375 v 3.292968 c 0,0.673829 0.38086,1.007813 1.14844,1.007813 0.95215,0 1.81054,-0.237305 2.57812,-0.714844 5.34961,-2.967773 11.03906,-4.453125 17.0625,-4.453125 6.49805,0 11.70996,1.769531 15.63281,5.308594 4.59375,4.110352 6.89063,10.180664 6.89063,18.210937 v 36.574219 c 0,1.822266 0.28418,3.184571 0.85547,4.089844 0.56836,0.908203 1.33594,1.40625 2.29687,1.5 v 19.07812494 h -33.5625 V -47.333045 c 0,-1.139649 0,-2.238282 0,-3.292969 0,-1.054688 0.0469,-2.056641 0.14063,-3.011719 0,-1.148437 -0.0703,-2.267578 -0.21094,-3.363281 -0.14062,-1.101563 -0.6416,-2.132813 -1.5,-3.09375 -1.14844,-1.335938 -2.34375,-2.003906 -3.58594,-2.003906 h -4.59375 c -1.14843,0 -1.8164,0.336914 -2.0039,1.007812 -0.38379,0.665039 -0.57422,2.144531 -0.57422,4.441406 z m 60.59473,-31.699219 c 0,-2.288086 -0.33692,-4.151367 -1.00782,-5.589844 -0.67383,-1.435547 -1.82226,-2.534179 -3.44531,-3.292969 v -16.640625 c 1.24219,0 2.15039,-0.333984 2.73047,-1.007812 0.28711,-0.28125 0.6709,-0.826172 1.14844,-1.640625 0.47461,-0.820313 0.71484,-1.705078 0.71484,-2.660156 v -14.917965 l 30.69141,-8.74219 v 25.523436 c 0,0.477539 0.2373,1.12207 0.71484,1.933594 0.47461,0.814453 1.62305,1.21875 3.44531,1.21875 h 8.16797 v 18.070312 h -7.59375 c -1.62598,0 -2.77441,0.457031 -3.44531,1.371094 -0.67383,0.908203 -1.00781,2.411133 -1.00781,4.511719 v 28.546875 c 0,1.813476 0.33398,3.606445 1.00781,5.378906 0.6709,1.766602 1.5293,3.055664 2.57812,3.867187 1.05469,0.814454 2.00977,1.50586 2.8711,2.074219 1.43554,0.960938 2.73047,1.535156 3.8789,1.722656 v 16.9218754 c -1.82226,0.86132816 -3.90234,1.45605473 -6.24609,1.79296879 -2.34375,0.33398441 -4.85156,0.50390621 -7.52344,0.50390621 -2.29687,0 -4.11328,0 -5.44922,0 -8.22656,0 -14.15625,-2.24414059 -17.78906,-6.7382812 -2.96191,-3.6328125 -4.4414,-8.9882812 -4.4414,-16.0664062 z m 98.7539,57.65624994 V -1.5830453 c 0,-1.2421875 -0.43066,-1.8632813 -1.28906,-1.8632813 -0.28125,0 -2.95899,1.1953125 -8.02734,3.58593754 -2.68067,1.24218746 -4.78125,1.86328126 -6.30469,1.86328126 -2.20313,0 -3.87891,0 -5.02735,0 -7.35937,0 -12.76171,-1.05175782 -16.20703,-3.1523438 -5.0625,-3.0615234 -8.02441,-9.0849604 -8.88281,-18.0703124 -0.10254,-0.670898 -0.15234,-1.722656 -0.15234,-3.152344 0,-5.162109 1.33886,-9.752929 4.01953,-13.769531 2.67773,-4.013672 6.5039,-6.881836 11.47265,-8.601563 l 29.54297,-10.324218 v -6.175782 c 0,-2.100585 -0.59765,-3.506835 -1.79297,-4.21875 -1.19531,-0.717773 -2.46093,-1.078125 -3.79687,-1.078125 -4.59375,0 -6.89063,1.957032 -6.89063,5.871094 v 5.308594 h -28.82812 v -19.792969 c 5.26465,-4.491211 10.7168,-7.526367 16.35937,-9.105469 5.63965,-1.576171 12.47461,-2.367187 20.50782,-2.367187 9.84375,0 17.92089,1.675781 24.23437,5.027344 7.74024,4.110351 11.61328,10.274414 11.61328,18.492187 v 37.582031 c 0,0.767579 0.14356,1.50879 0.4336,2.226563 0.28711,0.711914 0.71777,1.49707 1.28906,2.355469 0.56836,0.861328 1.28906,1.482422 2.15625,1.863281 V -0.00101406 Z M 380.81737,-31.547889 c -1.43848,0.767578 -2.56348,1.769531 -3.375,3.011719 -0.81445,1.242187 -1.12207,2.578125 -0.92578,4.007812 0.47461,3.351563 2.38476,5.027344 5.73047,5.027344 1.91308,0 3.58593,-0.621094 5.01562,-1.863281 1.43555,-1.248047 2.15625,-2.827149 2.15625,-4.734375 v -5.027344 c 0,-1.335938 -0.91113,-2.003906 -2.73047,-2.003906 -1.04883,0 -1.97754,0.123047 -2.78906,0.363281 -0.81445,0.234375 -1.83984,0.641602 -3.08203,1.21875 z m 149.29687,5.449219 c 0,-1.054688 -0.38379,-2.056641 -1.14843,-3.011719 -0.38379,-0.287109 -0.66797,-0.480469 -0.85547,-0.574219 -0.76758,-0.474609 -1.3418,-0.714844 -1.72266,-0.714844 h -11.90625 c -0.38379,0 -0.86133,0.1875 -1.42969,0.5625 -0.1875,0.10254 -0.42773,0.345704 -0.71484,0.726563 -0.76758,0.955078 -1.14844,1.957031 -1.14844,3.011719 v 1.570312 c 0,1.344727 0.57422,2.399414 1.72266,3.164063 0.38086,0.28125 0.76465,0.521484 1.14844,0.714843 0.76464,0.38379 1.33886,0.574219 1.72265,0.574219 V -0.00101406 H 476.62987 V -19.934608 c 0.8584,-0.474609 1.52637,-1.142578 2.00391,-2.003906 l 0.85546,-2.730469 16.78125,-90.058597 h 52.20704 l 18.64453,88.335941 c 0.0937,0.673828 0.28418,1.294922 0.57422,1.863281 0.0937,0.196289 0.52148,0.890625 1.28906,2.085938 0.76465,1.195312 1.62304,2.126953 2.57812,2.789062 V -0.00101406 H 526.38768 V -19.934608 c 0.6709,-0.09375 1.45899,-0.591797 2.36719,-1.5 0.90527,-0.914062 1.35937,-1.945312 1.35937,-3.09375 z m -10.60546,-52.488282 -4.45313,22.792969 c -0.1875,1.916016 0.14648,3.351563 1.00781,4.3125 0.8584,0.955078 2.19727,1.286133 4.01953,0.996094 0.66211,0.09375 1.47071,0.04687 2.42579,-0.140625 0.96093,-0.193359 1.53808,-0.480469 1.73437,-0.855469 0.95215,-1.248047 1.2832,-2.636719 0.99609,-4.160156 z m 101.92089,52.628907 c 0,0.767578 0.14063,1.508789 0.42188,2.226562 0.28711,0.711914 0.6709,1.450196 1.14844,2.214844 0.85839,1.242187 2.00683,2.056641 3.44531,2.4375 V -0.00101406 H 588.72264 V -19.501014 c 0.86719,-0.380859 1.6084,-1.048828 2.22656,-2.003906 0.62403,-0.960938 0.9375,-2.44336 0.9375,-4.453125 v -32.273438 c 0,-1.045898 -0.14648,-1.904297 -0.43359,-2.578125 -0.29004,-0.670898 -0.79394,-1.552734 -1.51172,-2.648437 -0.71191,-1.101563 -1.6875,-2.033203 -2.92969,-2.800782 v -17.636718 h 33.84375 v 3.292968 c 0,0.673829 0.38086,1.007813 1.14844,1.007813 0.95215,0 1.81055,-0.237305 2.57813,-0.714844 5.34961,-2.967773 11.03906,-4.453125 17.0625,-4.453125 6.49804,0 11.70996,1.769531 15.63281,5.308594 4.59375,4.110352 6.89062,10.180664 6.89062,18.210937 v 36.574219 c 0,1.822266 0.28418,3.184571 0.85547,4.089844 0.56836,0.908203 1.33594,1.40625 2.29688,1.5 V -0.00101406 H 633.7578 V -47.333045 c 0,-1.139649 0,-2.238282 0,-3.292969 0,-1.054688 0.0469,-2.056641 0.14062,-3.011719 0,-1.148437 -0.0703,-2.267578 -0.21093,-3.363281 -0.14063,-1.101563 -0.64161,-2.132813 -1.5,-3.09375 -1.14844,-1.335938 -2.34375,-2.003906 -3.58594,-2.003906 h -4.59375 c -1.14844,0 -1.81641,0.336914 -2.00391,1.007812 -0.38379,0.665039 -0.57422,2.144531 -0.57422,4.441406 z M 724.60741,-0.00101406 V -1.5830453 c 0,-1.2421875 -0.43067,-1.8632813 -1.28906,-1.8632813 -0.28125,0 -2.95899,1.1953125 -8.02735,3.58593754 -2.68066,1.24218746 -4.78125,1.86328126 -6.30469,1.86328126 -2.20312,0 -3.8789,0 -5.02734,0 -7.35937,0 -12.76172,-1.05175782 -16.20703,-3.1523438 -5.0625,-3.0615234 -8.02441,-9.0849604 -8.88281,-18.0703124 -0.10254,-0.670898 -0.15235,-1.722656 -0.15235,-3.152344 0,-5.162109 1.33887,-9.752929 4.01953,-13.769531 2.67774,-4.013672 6.50391,-6.881836 11.47266,-8.601563 l 29.54297,-10.324218 v -6.175782 c 0,-2.100585 -0.59766,-3.506835 -1.79297,-4.21875 -1.19531,-0.717773 -2.46094,-1.078125 -3.79687,-1.078125 -4.59375,0 -6.89063,1.957032 -6.89063,5.871094 v 5.308594 h -28.82812 v -19.792969 c 5.26464,-4.491211 10.71679,-7.526367 16.35937,-9.105469 5.63965,-1.576171 12.47461,-2.367187 20.50781,-2.367187 9.84375,0 17.9209,1.675781 24.23438,5.027344 7.74023,4.110351 11.61328,10.274414 11.61328,18.492187 v 37.582031 c 0,0.767579 0.14355,1.50879 0.43359,2.226563 0.28711,0.711914 0.71778,1.49707 1.28907,2.355469 0.56835,0.861328 1.28906,1.482422 2.15625,1.863281 V -0.00101406 Z M 715.7246,-31.547889 c -1.43848,0.767578 -2.56348,1.769531 -3.375,3.011719 -0.81446,1.242187 -1.12207,2.578125 -0.92579,4.007812 0.47461,3.351563 2.38477,5.027344 5.73047,5.027344 1.91309,0 3.58594,-0.621094 5.01563,-1.863281 1.43554,-1.248047 2.15625,-2.827149 2.15625,-4.734375 v -5.027344 c 0,-1.335938 -0.91113,-2.003906 -2.73047,-2.003906 -1.04883,0 -1.97754,0.123047 -2.78906,0.363281 -0.81446,0.234375 -1.83985,0.641602 -3.08203,1.21875 z m 0,0"
       style="fill:#000000;fill-opacity:1;fill-rule:nonzero;stroke:none"
       aria-label="Santa Ana"
       transform="matrix(1.3333333,0,0,1.3333333,656.63413,1864.3021)" />
    <path
       id="path10"
       d="m 13.85108,-36.550787 v 13.171875 h 20.90625 v 6.796875 H 13.85108 V -6.2499998e-6 H 5.8120172 V -43.300787 H 37.417486 v 6.75 z M 90.052252,-6.7382875 V -6.2499998e-6 H 57.579595 V -43.300787 h 31.605469 v 6.75 H 65.618658 v 11.25 h 20.90625 v 6.621093 H 65.618658 V -6.7382875 Z M 139.71338,-6.2499998e-6 130.87745,-12.679694 c -0.375,0.04102 -0.93457,0.05859 -1.67578,0.05859 h -9.77344 V -6.2499998e-6 h -8.03906 V -43.300787 h 17.8125 c 3.75,0 7.01367,0.621093 9.79687,1.863281 2.78906,1.236328 4.92481,3.008789 6.41016,5.320312 1.48242,2.305664 2.22656,5.047852 2.22656,8.226563 0,3.257812 -0.79395,6.064453 -2.37891,8.414062 -1.58789,2.34375 -3.86425,4.095703 -6.83203,5.25 L 148.37354,-6.2499998e-6 Z M 139.5376,-27.890631 c 0,-2.765625 -0.91113,-4.889649 -2.73047,-6.375 -1.81347,-1.482422 -4.4707,-2.226563 -7.96875,-2.226563 h -9.41015 v 17.261719 h 9.41015 c 3.49805,0 6.15528,-0.75293 7.96875,-2.261719 1.81934,-1.505859 2.73047,-3.638672 2.73047,-6.398437 z M 197.29639,-6.2499998e-6 188.46045,-12.679694 c -0.375,0.04102 -0.93457,0.05859 -1.67578,0.05859 h -9.77343 V -6.2499998e-6 h -8.03907 V -43.300787 h 17.8125 c 3.75,0 7.01368,0.621093 9.79688,1.863281 2.78906,1.236328 4.9248,3.008789 6.41015,5.320312 1.48243,2.305664 2.22657,5.047852 2.22657,8.226563 0,3.257812 -0.79395,6.064453 -2.37891,8.414062 -1.58789,2.34375 -3.86426,4.095703 -6.83203,5.25 L 205.95655,-6.2499998e-6 Z M 197.12061,-27.890631 c 0,-2.765625 -0.91113,-4.889649 -2.73047,-6.375 -1.81347,-1.482422 -4.4707,-2.226563 -7.96875,-2.226563 h -9.41015 v 17.261719 h 9.41015 c 3.49805,0 6.15528,-0.75293 7.96875,-2.261719 1.81934,-1.505859 2.73047,-3.638672 2.73047,-6.398437 z m 61.90723,21.1523435 V -6.2499998e-6 H 226.55518 V -43.300787 h 31.60547 v 6.75 h -23.56641 v 11.25 h 20.90625 v 6.621093 h -20.90625 v 11.9414065 z m 30.12597,-29.7539065 h -14.35546 v -6.808593 h 36.73828 v 6.808593 H 297.19288 V -6.2499998e-6 h -8.03907 z m 73.28614,29.7539065 V -6.2499998e-6 H 329.96729 V -43.300787 h 31.60547 v 6.75 h -23.56641 v 11.25 h 20.90625 v 6.621093 H 338.00635 V -6.7382875 Z M 412.10108,-6.2499998e-6 403.26514,-12.679694 c -0.375,0.04102 -0.93457,0.05859 -1.67578,0.05859 h -9.77344 V -6.2499998e-6 h -8.03906 V -43.300787 h 17.8125 c 3.75,0 7.01367,0.621093 9.79688,1.863281 2.78906,1.236328 4.9248,3.008789 6.41015,5.320312 1.48242,2.305664 2.22656,5.047852 2.22656,8.226563 0,3.257812 -0.79394,6.064453 -2.3789,8.414062 -1.58789,2.34375 -3.86426,4.095703 -6.83203,5.25 L 420.76124,-6.2499998e-6 Z M 411.9253,-27.890631 c 0,-2.765625 -0.91113,-4.889649 -2.73047,-6.375 -1.81348,-1.482422 -4.4707,-2.226563 -7.96875,-2.226563 h -9.41016 v 17.261719 h 9.41016 c 3.49805,0 6.15527,-0.75293 7.96875,-2.261719 1.81934,-1.505859 2.73047,-3.638672 2.73047,-6.398437 z m 29.43457,-15.410156 h 8.03906 V -6.2499998e-6 h -8.03906 z m 7.18359,-12 h 9.09375 l -10.76953,8.484375 h -6.67969 z m 52.99219,45.28125 H 479.89112 L 475.62549,-6.2499998e-6 h -8.28515 L 486.8169,-43.300787 h 7.92187 L 514.28565,-6.2499998e-6 h -8.41406 z m -2.66016,-6.304688 -8.15625,-18.925781 -8.10937,18.925781 z m 0,0"
       style="fill:#000000;fill-opacity:1;fill-rule:nonzero;stroke:none"
       aria-label="FERRETERÃA"
       transform="matrix(1.3333333,0,0,1.3333333,871.6608,1975.3281)" />
  </g>
</svg>
